<svg width="24" height="24" viewBox="0 0 24 24" fill="none" xmlns="http://www.w3.org/2000/svg">
<path fill-rule="evenodd" clip-rule="evenodd" d="M2 0.75H6.375C7.0625 0.75 7.625 1.3125 7.625 2C7.625 3.5625 7.875 5.0625 8.3375 6.4625C8.475 6.9 8.375 7.3875 8.025 7.7375L5.275 10.4875C7.075 14.025 9.975 16.9125 13.5125 18.725L16.2625 15.975C16.5125 15.7375 16.825 15.6125 17.15 15.6125C17.275 15.6125 17.4125 15.625 17.5375 15.675C18.9375 16.1375 20.45 16.3875 22 16.3875C22.6875 16.3875 23.25 16.95 23.25 17.6375V22C23.25 22.6875 22.6875 23.25 22 23.25C10.2625 23.25 0.75 13.7375 0.75 2C0.75 1.3125 1.3125 0.75 2 0.75ZM5.17501 3.25C5.25001 4.3625 5.43751 5.45 5.73751 6.4875L4.23751 7.9875C3.72501 6.4875 3.40001 4.9 3.28751 3.25H5.17501ZM17.5 18.275C18.5625 18.575 19.65 18.7625 20.75 18.8375V20.7C19.1 20.5875 17.5125 20.2625 16 19.7625L17.5 18.275Z" fill="#142B76"/>
</svg>
