<?xml version="1.0" encoding="utf-8"?>
<!-- Generator: Adobe Illustrator 24.0.1, SVG Export Plug-In . SVG Version: 6.00 Build 0)  -->
<svg version="1.1" id="Слой_1" xmlns="http://www.w3.org/2000/svg" xmlns:xlink="http://www.w3.org/1999/xlink" x="0px" y="0px"
	 viewBox="0 0 1440 335" style="enable-background:new 0 0 1440 335;" xml:space="preserve">
<style type="text/css">
	.st0{fill:none;stroke:url(#SVGID_1_);stroke-width:2;stroke-opacity:0.7;}
	.st1{fill:none;stroke:url(#SVGID_2_);stroke-width:2;stroke-opacity:0.7;}
	.st2{fill:none;stroke:url(#SVGID_3_);stroke-width:2;stroke-opacity:0.7;}
	.st3{fill:none;stroke:url(#SVGID_4_);stroke-width:2;stroke-opacity:0.7;}
</style>
<linearGradient id="SVGID_1_" gradientUnits="userSpaceOnUse" x1="720.37" y1="333.2129" x2="720.37" y2="126.7792" gradientTransform="matrix(1 0 0 -1 0 335.89)">
	<stop  offset="0" style="stop-color:#F8C5C5"/>
	<stop  offset="1" style="stop-color:#4C2FFF;stop-opacity:0.75"/>
</linearGradient>
<path class="st0" d="M0,208.7c78.1-1.9,338-47,348.6-152.4c9.3-92.5,308.2-45,577-3c176.8,36.3,470.8,34.6,514.3-17.1"/>
<g>
	
		<linearGradient id="SVGID_2_" gradientUnits="userSpaceOnUse" x1="421.4201" y1="184.3221" x2="421.4201" y2="-38.456" gradientTransform="matrix(1 0 0 -1 299 205)">
		<stop  offset="0" style="stop-color:#F8C5C5"/>
		<stop  offset="1" style="stop-color:#4C2FFF;stop-opacity:0.75"/>
	</linearGradient>
	<path class="st1" d="M0,243c146.4-6.7,363.7-64.8,383.6-161.7c11.4-113,373.5-39.9,557,0c170.6,35,476,46.2,499.3,1.6"/>
</g>
<g>
	
		<linearGradient id="SVGID_3_" gradientUnits="userSpaceOnUse" x1="421.3145" y1="158.1191" x2="421.3145" y2="-69.8526" gradientTransform="matrix(1 0 0 -1 299 205)">
		<stop  offset="0" style="stop-color:#F8C5C5"/>
		<stop  offset="1" style="stop-color:#4C2FFF;stop-opacity:0.75"/>
	</linearGradient>
	<path class="st2" d="M0,274.4c150.3-15.4,366.7-40.6,400.2-157.6c11.4-133.5,383.2-40.4,598.8,0c183.1,31.3,397,52.9,441,5.8"/>
</g>
<g>
	
		<linearGradient id="SVGID_4_" gradientUnits="userSpaceOnUse" x1="421.318" y1="126.1748" x2="421.318" y2="-108.6343" gradientTransform="matrix(1 0 0 -1 299 205)">
		<stop  offset="0" style="stop-color:#F8C5C5"/>
		<stop  offset="1" style="stop-color:#4C2FFF;stop-opacity:0.75"/>
	</linearGradient>
	<path class="st3" d="M0,313.1c153.1-12.4,439.1-49.8,444.3-191.6c-29.3-96.5,385.2-3.9,604.8,42.9c9.5,2,16.7,2.4,25,4.4
		c162.3,40.7,333.1,26.5,366-7.4"/>
</g>
</svg>
